<?xml version="1.0" standalone="no"?>
<!DOCTYPE svg PUBLIC "-//W3C//DTD SVG 20010904//EN"
 "http://www.w3.org/TR/2001/REC-SVG-20010904/DTD/svg10.dtd">
<svg version="1.0" xmlns="http://www.w3.org/2000/svg"
 width="360.000000pt" height="360.000000pt" viewBox="0 0 360.000000 360.000000"
 preserveAspectRatio="xMidYMid meet">

<g transform="translate(0.000000,360.000000) scale(0.100000,-0.100000)"
fill="#000000" stroke="none">
<path d="M0 1800 l0 -1800 1800 0 1800 0 0 1800 0 1800 -1800 0 -1800 0 0
-1800z m2076 1490 c43 -11 107 -34 142 -52 67 -34 168 -120 217 -186 l30 -40
235 -4 c253 -5 288 -11 357 -64 77 -59 80 -115 18 -430 -67 -343 -71 -349
-212 -368 l-88 -12 -3 -118 -3 -118 -42 6 c-96 16 -191 79 -251 167 l-32 47
-159 -99 c-330 -205 -405 -254 -403 -264 2 -6 48 -90 103 -188 l100 -177 549
-2 550 -3 -1 -75 -1 -75 -1411 -3 -1411 -2 0 85 0 85 180 0 180 0 0 199 0 199
35 29 c70 57 85 232 29 351 -67 144 -81 291 -40 420 12 36 -17 27 -57 -17 -48
-54 -59 -96 -55 -225 3 -109 3 -109 32 -126 52 -28 71 -64 71 -133 0 -48 -6
-74 -28 -117 -32 -63 -122 -170 -143 -170 -12 0 -14 54 -14 348 0 217 4 362
11 386 16 58 89 123 229 203 69 39 163 93 210 121 654 379 679 392 780 421 88
25 198 26 296 1z m369 -1312 c3 -13 23 -96 45 -186 22 -89 40 -166 40 -171 0
-7 -129 -66 -257 -118 -7 -3 -25 21 -42 55 l-30 60 59 56 c33 30 60 58 60 61
0 4 -23 33 -51 65 -28 32 -48 63 -45 68 3 5 46 33 95 61 50 29 93 56 96 62 10
16 24 10 30 -13z m-1456 -890 c40 -40 41 -43 41 -112 0 -61 -3 -73 -25 -96
l-25 -26 25 -24 c22 -21 25 -32 25 -95 l0 -72 -45 -42 -45 -41 -183 2 -182 3
-3 260 c-1 143 0 265 3 272 3 10 49 13 189 13 l184 0 41 -42z m296 -233 l0
-270 -67 -3 -68 -3 0 276 0 276 68 -3 67 -3 0 -270z m510 205 l0 -65 -130 -5
-130 -5 0 -35 0 -35 102 -3 101 -3 41 -44 c40 -43 41 -47 41 -113 0 -65 -2
-72 -37 -116 -46 -56 -55 -58 -238 -54 l-140 3 -3 68 -3 67 140 0 141 0 6 25
c12 50 3 55 -103 55 l-97 0 -43 42 -43 42 0 82 0 81 45 42 45 42 153 -3 152
-3 0 -65z m551 26 l44 -43 0 -185 0 -185 -41 -44 -40 -44 -144 -3 -144 -3 -45
42 -46 42 0 191 0 191 39 43 39 42 147 0 148 0 43 -44z m571 0 l43 -44 -2
-228 -3 -229 -67 -3 -68 -3 -2 203 -3 203 -90 0 -90 0 -3 -202 -2 -203 -65 0
-65 0 0 275 0 275 186 0 187 0 44 -44z"/>
<path d="M1977 3138 c-10 -5 -33 -40 -52 -79 -20 -38 -41 -69 -49 -69 -7 0
-37 32 -65 70 -28 39 -55 70 -61 70 -22 0 -90 -41 -90 -54 0 -7 9 -39 20 -72
11 -32 20 -70 20 -83 0 -23 -2 -24 -57 -17 -32 4 -74 9 -94 12 -35 6 -37 5
-53 -36 -9 -23 -14 -50 -11 -59 3 -10 32 -30 65 -46 33 -16 67 -36 75 -45 13
-15 13 -19 -8 -37 -12 -11 -43 -34 -69 -52 -27 -18 -48 -39 -48 -47 0 -24 28
-84 42 -89 8 -3 40 4 72 15 33 11 72 20 88 20 33 0 33 -4 14 -102 -7 -37 -10
-72 -6 -77 3 -6 26 -17 50 -26 52 -18 52 -18 100 76 37 72 52 78 85 34 14 -19
36 -51 51 -70 29 -40 46 -43 92 -15 38 23 39 30 11 122 -27 89 -22 96 64 80
98 -18 106 -17 123 23 24 58 20 67 -58 110 -40 22 -74 47 -76 56 -2 9 24 33
68 63 38 26 70 52 70 57 0 6 -9 28 -20 49 -24 47 -39 49 -125 20 -89 -31 -89
-31 -80 48 14 126 15 123 -31 142 -28 12 -46 15 -57 8z m-8 -306 c58 -42 61
-140 7 -191 -33 -31 -102 -39 -144 -17 -84 43 -82 178 2 221 38 19 100 14 135
-13z"/>
<path d="M2507 2917 c-46 -70 -47 -190 -3 -258 34 -51 110 -89 179 -89 59 0
82 11 102 50 21 41 19 75 -8 105 -18 22 -35 28 -97 36 -95 12 -128 40 -145
125 l-11 56 -17 -25z"/>
<path d="M1226 2758 c-8 -18 -17 -48 -21 -65 -3 -18 -12 -33 -18 -33 -7 0 -32
18 -57 40 -25 22 -50 40 -56 40 -6 0 -21 -11 -33 -24 l-23 -25 26 -47 c42 -74
38 -83 -41 -86 l-68 -3 -3 -41 -3 -41 61 -18 c72 -22 75 -34 20 -90 -22 -22
-40 -42 -40 -45 1 -3 11 -18 25 -34 l24 -30 59 32 c32 17 62 29 66 25 3 -3 6
-28 6 -55 0 -67 13 -88 55 -88 32 0 34 2 55 65 12 36 24 65 27 65 3 0 28 -20
55 -45 52 -47 66 -48 98 -10 12 15 10 24 -13 69 -38 72 -37 76 31 76 70 0 77
5 86 52 l7 38 -62 17 c-33 9 -63 23 -66 30 -3 7 13 33 36 58 22 24 41 48 41
52 -1 15 -38 53 -52 53 -7 0 -33 -11 -57 -25 -66 -38 -71 -35 -71 40 0 61 -2
66 -26 75 -41 16 -54 12 -68 -22z m75 -217 c32 -33 37 -67 14 -110 -17 -33
-33 -41 -84 -41 -62 0 -108 69 -81 122 33 64 102 77 151 29z"/>
<path d="M2822 2510 c-40 -37 -17 -100 36 -100 25 0 62 33 62 55 0 20 -44 65
-63 65 -7 0 -23 -9 -35 -20z"/>
<path d="M1120 1957 c0 -28 -52 -120 -92 -163 -24 -26 -62 -55 -84 -65 l-41
-19 -6 -67 c-5 -54 -4 -137 2 -235 1 -9 211 -11 211 -3 0 3 -27 60 -61 127
-56 112 -59 122 -42 131 10 6 38 30 63 53 l46 43 99 -180 99 -179 269 0 268 0
-47 88 c-26 48 -75 137 -109 197 -34 61 -81 147 -106 192 -30 58 -50 84 -67
88 -45 11 -402 4 -402 -8z"/>
<path d="M714 986 c-3 -8 -4 -25 -2 -38 3 -20 11 -24 69 -32 37 -5 78 -6 93
-2 23 6 26 12 26 46 l0 40 -90 0 c-69 0 -92 -3 -96 -14z"/>
<path d="M722 802 c-8 -6 -12 -24 -10 -48 l3 -39 90 0 90 0 0 45 0 45 -80 3
c-44 1 -86 -2 -93 -6z"/>
<path d="M2067 984 c-13 -13 -8 -239 5 -252 7 -7 43 -12 90 -12 93 0 90 -6 86
155 l-3 110 -85 3 c-47 1 -89 0 -93 -4z"/>
</g>
</svg>
